<svg width="107" height="150" viewBox="0 0 107 150" fill="none" xmlns="http://www.w3.org/2000/svg">
<g clip-path="url(#clip0_24_14)">
<path d="M106.21 29.4785L96.5337 137.935L53.0398 150L9.66572 137.952L0 29.4785H106.21Z" fill="#264DE4"/>
<path d="M88.25 131.029L96.5188 38.3479H53.1049V140.778L88.25 131.029Z" fill="#2965F1"/>
<path d="M22.1584 78.5792L23.3502 91.8829H53.1048V78.5792H22.1584Z" fill="#EBEBEB"/>
<path d="M53.1048 51.6519H53.0589H19.7639L20.9726 64.9559H53.1048V51.6519Z" fill="#EBEBEB"/>
<path d="M53.1048 126.972V113.131L53.0465 113.146L38.2383 109.146L37.2916 98.5351H30.096H23.9442L25.807 119.424L53.0436 126.989L53.1048 126.972Z" fill="#EBEBEB"/>
<path d="M24.9957 0H41.0999V6.73828H31.7302V13.4766H41.0999V20.2148H24.9957V0Z" fill="white"/>
<path d="M44.3208 0H60.425V5.85938H51.0553V7.03125H60.425V20.5078H44.3208V14.3555H53.6905V13.1836H44.3208V0Z" fill="white"/>
<path d="M79.7499 0H63.6458V13.1836H73.0155V14.3555H63.6458V20.5078H79.7499V7.03125H70.3802V5.85938H79.7499V0Z" fill="white"/>
<path d="M69.4318 91.8829L67.8884 109.137L53.0588 113.142V126.983L80.3171 119.424L80.517 117.176L83.6415 82.1517L83.966 78.5792L86.3664 51.6519H53.0588V64.9559H71.7947L70.5849 78.5792H53.0588V91.8829H69.4318Z" fill="white"/>
</g>
<defs>
<clipPath id="clip0_24_14">
<rect width="106.21" height="150" fill="white"/>
</clipPath>
</defs>
</svg>
