<svg width="107" height="150" viewBox="0 0 107 150" fill="none" xmlns="http://www.w3.org/2000/svg">
<g clip-path="url(#clip0_24_8)">
<path d="M10.0781 0H16.8164V6.67969H23.0273V0H29.7656V20.2148H23.0273V13.4766H16.875V20.2148H10.0781V0ZM38.6719 6.73828H32.7246V0H51.3867V6.73828H45.4102V20.2148H38.6719V6.73828ZM54.3457 0H61.4063L65.7422 7.11914L70.0781 0H77.1387V20.2148H70.4004V10.1953L65.6836 17.4609L60.9668 10.1953V20.2148H54.3457V0ZM80.4785 0H87.2168V13.5352H96.7676V20.2148H80.4785" fill="white"/>
<path d="M9.84375 137.988L0.175781 29.4727H106.465L96.7969 137.93L53.2324 150" fill="#E44D26"/>
<path d="M53.3203 140.771V38.3789H96.7676L88.4766 130.957" fill="#F16529"/>
<path d="M19.9219 51.6504H53.3203V64.9512H34.5117L35.7422 78.5742H53.3203V91.8457H23.5547L19.9219 51.6504ZM24.1406 98.5254H37.5L38.4375 109.16L53.3203 113.145V127.031L26.0156 119.414" fill="#EBEBEB"/>
<path d="M86.6016 51.6504H53.2617V64.9512H85.3711L86.6016 51.6504ZM84.1699 78.5742H53.2617V91.875H69.668L68.1152 109.16L53.2617 113.145V126.973L80.5078 119.414" fill="white"/>
</g>
<defs>
<clipPath id="clip0_24_8">
<rect width="106.348" height="150" fill="white"/>
</clipPath>
</defs>
</svg>
